<svg preserveAspectRatio="none" overflow="visible" style="display: block;" width="54.25" height="54.25" viewBox="0 0 54.25 54.25" fill="none" xmlns="http://www.w3.org/2000/svg">
<g id="Vector">
<path d="M54.25 27.125C54.25 42.1057 42.1057 54.25 27.125 54.25C12.1443 54.25 0 42.1057 0 27.125C0 12.1443 12.1443 0 27.125 0C42.1057 0 54.25 12.1443 54.25 27.125Z" fill="#D4D4D8"/>
<path d="M25.0385 17.2194C25.0385 16.079 25.9819 15.1546 27.1223 15.1546C28.2626 15.1546 29.2061 16.079 29.2061 17.2194V28.4291C29.2061 29.5694 28.2626 30.4939 27.1223 30.4939C25.9819 30.4939 25.0385 29.5694 25.0385 28.4291V17.2194Z" fill="white"/>
<path d="M29.4262 36.9315C29.4262 38.2151 28.3856 39.2557 27.1019 39.2557C25.8183 39.2557 24.7776 38.2151 24.7776 36.9315C24.7776 35.6478 25.8183 34.6072 27.1019 34.6072C28.3856 34.6072 29.4262 35.6478 29.4262 36.9315Z" fill="white"/>
</g>
</svg>
