<svg width="28" height="28" viewBox="0 0 28 28" fill="none" xmlns="http://www.w3.org/2000/svg">
<path d="M4.95801 20.7664V7.23357C4.95801 6.5946 4.95682 6.06249 4.99219 5.6294C5.0284 5.1862 5.10729 4.76963 5.30778 4.37614C5.61533 3.77272 6.10573 3.28232 6.70915 2.97478C7.10264 2.77428 7.5192 2.69539 7.96241 2.65918C8.3955 2.62381 8.92761 2.625 9.56657 2.625H14.787C14.9287 2.625 15.0582 2.62509 15.1743 2.62614C15.5138 2.62924 15.8102 2.6406 16.1154 2.71387C16.442 2.79231 16.7554 2.92176 17.0428 3.09782C17.3871 3.30878 17.6716 3.60129 18.0454 3.9751L21.6924 7.62094C22.0674 7.99591 22.3566 8.27949 22.5674 8.62354C22.7428 8.90988 22.8737 9.22283 22.9525 9.55095C23.0257 9.85596 23.0371 10.1526 23.0402 10.492C23.0413 10.608 23.0413 10.7377 23.0413 10.8805V20.771C23.0413 21.4086 23.0425 21.9395 23.0072 22.3717C22.971 22.8143 22.8918 23.2296 22.6916 23.6227C22.3838 24.2268 21.8922 24.7179 21.2891 25.0252C20.8961 25.2255 20.4805 25.3046 20.0381 25.3408C19.6058 25.3762 19.0739 25.375 18.4362 25.375H9.56316C8.92546 25.375 8.39381 25.3762 7.96127 25.3408C7.5186 25.3046 7.10237 25.2256 6.70915 25.0252C6.10518 24.7174 5.61505 24.2258 5.30778 23.6227C5.10743 23.2294 5.0284 22.8137 4.99219 22.3706C4.95681 21.9377 4.95801 21.4054 4.95801 20.7664ZM17.4997 18.9583C17.9829 18.9583 18.3747 19.3501 18.3747 19.8333C18.3747 20.3166 17.9829 20.7083 17.4997 20.7083H10.4997C10.0164 20.7083 9.62468 20.3166 9.62468 19.8333C9.62468 19.3501 10.0164 18.9583 10.4997 18.9583H17.4997ZM17.4997 15.4583C17.9829 15.4583 18.3747 15.8501 18.3747 16.3333C18.3747 16.8166 17.9829 17.2083 17.4997 17.2083H10.4997C10.0164 17.2083 9.62468 16.8166 9.62468 16.3333C9.62468 15.8501 10.0164 15.4583 10.4997 15.4583H17.4997ZM16.0413 6.76758C16.0413 7.43505 16.0416 7.88319 16.0698 8.2282C16.0972 8.563 16.147 8.72295 16.2009 8.82862C16.3409 9.10337 16.5638 9.32706 16.8377 9.46664C16.9431 9.52024 17.1031 9.56922 17.437 9.59652C17.7817 9.62469 18.2299 9.62501 18.8965 9.62501H21.125C21.1095 9.59539 21.0935 9.56588 21.076 9.53728C20.9983 9.4104 20.886 9.29146 20.4539 8.85938L16.8081 5.21241C16.3757 4.77998 16.2555 4.66788 16.1291 4.59034C16.1006 4.5729 16.071 4.55678 16.0413 4.54135V6.76758ZM6.70801 20.7664C6.70801 21.4343 6.70829 21.8831 6.7365 22.2282C6.76386 22.5629 6.81368 22.7229 6.86752 22.8286C7.00759 23.1034 7.23056 23.3271 7.5044 23.4666C7.60978 23.5202 7.76973 23.5692 8.10368 23.5965C8.44842 23.6247 8.8966 23.625 9.56316 23.625H18.4362C19.1025 23.625 19.5501 23.6247 19.8945 23.5965C20.2287 23.5692 20.3895 23.5204 20.495 23.4666C20.7697 23.3266 20.9934 23.1025 21.133 22.8286C21.1867 22.7231 21.2355 22.5633 21.2629 22.2293C21.291 21.8849 21.2913 21.4375 21.2913 20.771V11.375H18.8965C18.2588 11.375 17.7271 11.3762 17.2946 11.3408C16.8519 11.3046 16.4357 11.2256 16.0425 11.0252C15.4386 10.7174 14.9484 10.2259 14.6411 9.62273C14.4408 9.22938 14.3617 8.81365 14.3255 8.37061C14.2901 7.93768 14.2913 7.40539 14.2913 6.76644V4.375H9.56657C8.89875 4.375 8.45015 4.37528 8.10482 4.40349C7.76985 4.43086 7.60998 4.48073 7.5044 4.53451C7.22999 4.67433 7.00733 4.89699 6.86752 5.17139C6.81374 5.27698 6.76387 5.43685 6.7365 5.77181C6.70829 6.11714 6.70801 6.56574 6.70801 7.23357V20.7664Z" fill="#E1A30E"/>
</svg>
