<svg preserveAspectRatio="none" overflow="visible" style="display: block;" width="19.5" height="17.4596" viewBox="0 0 19.5 17.4596" fill="none" xmlns="http://www.w3.org/2000/svg">
<path id="Vector (Stroke)" d="M18 5.70955C18 4.35958 17.6085 3.38138 17.0508 2.71834C16.4909 2.05295 15.7246 1.65855 14.8926 1.53865C13.2212 1.29801 11.3039 2.17118 10.4404 4.19783C10.3226 4.47438 10.0506 4.65388 9.75 4.65388C9.44939 4.65388 9.17739 4.47438 9.05957 4.19783C8.19607 2.17118 6.27876 1.29801 4.60742 1.53865C3.77537 1.65855 3.0091 2.05295 2.44922 2.71834C1.89146 3.38138 1.5 4.35958 1.5 5.70955C1.50005 8.35938 3.51612 10.915 5.74805 12.899C6.83999 13.8696 7.93567 14.6611 8.75977 15.2105C9.17044 15.4843 9.51239 15.6961 9.75 15.8394C9.98761 15.6961 10.3296 15.4843 10.7402 15.2105C11.5643 14.6611 12.66 13.8696 13.752 12.899C15.9839 10.915 18 8.35938 18 5.70955ZM19.5 5.70955C19.5 9.05962 17.016 12.0041 14.748 14.0201C13.5901 15.0494 12.4356 15.883 11.5723 16.4586C11.1399 16.7468 10.7789 16.972 10.5244 17.1256C10.3972 17.2023 10.2963 17.261 10.2266 17.3013C10.1919 17.3214 10.1644 17.3366 10.1455 17.3472C10.1361 17.3526 10.1283 17.357 10.123 17.3599C10.1205 17.3614 10.1187 17.363 10.1172 17.3638L10.1152 17.3648H10.1143C9.91604 17.4749 9.68024 17.4894 9.47266 17.4068L9.38574 17.3648H9.38477L9.38281 17.3638C9.38132 17.363 9.37947 17.3614 9.37695 17.3599C9.37174 17.357 9.36392 17.3526 9.35449 17.3472C9.33565 17.3366 9.30814 17.3214 9.27344 17.3013C9.20369 17.261 9.10275 17.2023 8.97559 17.1256C8.72106 16.972 8.3601 16.7468 7.92773 16.4586C7.06437 15.883 5.90994 15.0494 4.75195 14.0201C2.48398 12.0041 4.57215e-05 9.05962 0 5.70955C0 4.05971 0.483723 2.72497 1.30078 1.75349C2.11575 0.784679 3.22496 0.22264 4.39258 0.054273C6.32896 -0.224759 8.44012 0.57506 9.75 2.3863C11.0599 0.57506 13.171 -0.224759 15.1074 0.054273C16.275 0.22264 17.3842 0.784679 18.1992 1.75349C19.0163 2.72497 19.5 4.05971 19.5 5.70955Z" fill="#1A1A1A"/>
</svg>
